<mxfile host="app.diagrams.net" modified="2024-06-12T09:12:12.492Z" agent="Mozilla/5.0 (Macintosh; Intel Mac OS X 10_15_7) AppleWebKit/537.36 (KHTML, like Gecko) Chrome/125.0.0.0 Safari/537.36" etag="r_miFfAjGDWfuLJFYchF" version="24.5.3" type="github">
  <diagram name="第 1 页" id="l8_cYZkWIxTHTiHQYf6O">
    <mxGraphModel dx="1194" dy="731" grid="1" gridSize="10" guides="1" tooltips="1" connect="1" arrows="1" fold="1" page="1" pageScale="1" pageWidth="827" pageHeight="1169" math="0" shadow="0">
      <root>
        <mxCell id="0" />
        <mxCell id="1" parent="0" />
        <mxCell id="aqug33uVTvEiZ9dQA_RS-1" style="edgeStyle=orthogonalEdgeStyle;rounded=0;orthogonalLoop=1;jettySize=auto;html=1;entryX=0.5;entryY=0;entryDx=0;entryDy=0;" parent="1" source="aqug33uVTvEiZ9dQA_RS-2" target="aqug33uVTvEiZ9dQA_RS-8" edge="1">
          <mxGeometry relative="1" as="geometry" />
        </mxCell>
        <mxCell id="aqug33uVTvEiZ9dQA_RS-2" value="X client toolkit(GTK QT)" style="shape=ext;double=1;rounded=1;whiteSpace=wrap;html=1;fillColor=#dae8fc;strokeColor=#6c8ebf;fontSize=24;" parent="1" vertex="1">
          <mxGeometry x="200" y="380" width="440" height="110" as="geometry" />
        </mxCell>
        <mxCell id="aqug33uVTvEiZ9dQA_RS-3" value="" style="edgeStyle=orthogonalEdgeStyle;rounded=0;orthogonalLoop=1;jettySize=auto;html=1;" parent="1" source="aqug33uVTvEiZ9dQA_RS-5" target="aqug33uVTvEiZ9dQA_RS-20" edge="1">
          <mxGeometry relative="1" as="geometry" />
        </mxCell>
        <mxCell id="aqug33uVTvEiZ9dQA_RS-4" style="edgeStyle=orthogonalEdgeStyle;rounded=0;orthogonalLoop=1;jettySize=auto;html=1;" parent="1" source="aqug33uVTvEiZ9dQA_RS-5" target="aqug33uVTvEiZ9dQA_RS-25" edge="1">
          <mxGeometry relative="1" as="geometry">
            <Array as="points">
              <mxPoint x="670" y="790" />
              <mxPoint x="670" y="790" />
            </Array>
          </mxGeometry>
        </mxCell>
        <mxCell id="aqug33uVTvEiZ9dQA_RS-5" value="Xserver(Xorg)" style="shape=ext;double=1;rounded=1;whiteSpace=wrap;html=1;fillColor=#dae8fc;strokeColor=#6c8ebf;fontSize=24;" parent="1" vertex="1">
          <mxGeometry x="200" y="700" width="440" height="130" as="geometry" />
        </mxCell>
        <mxCell id="aqug33uVTvEiZ9dQA_RS-6" style="edgeStyle=orthogonalEdgeStyle;rounded=0;orthogonalLoop=1;jettySize=auto;html=1;entryX=0.5;entryY=0;entryDx=0;entryDy=0;" parent="1" source="aqug33uVTvEiZ9dQA_RS-8" target="aqug33uVTvEiZ9dQA_RS-5" edge="1">
          <mxGeometry relative="1" as="geometry" />
        </mxCell>
        <mxCell id="aqug33uVTvEiZ9dQA_RS-7" style="edgeStyle=orthogonalEdgeStyle;rounded=0;orthogonalLoop=1;jettySize=auto;html=1;entryX=0;entryY=0.5;entryDx=0;entryDy=0;" parent="1" source="aqug33uVTvEiZ9dQA_RS-8" target="aqug33uVTvEiZ9dQA_RS-22" edge="1">
          <mxGeometry relative="1" as="geometry">
            <mxPoint x="680" y="584.75" as="targetPoint" />
          </mxGeometry>
        </mxCell>
        <mxCell id="aqug33uVTvEiZ9dQA_RS-8" value="&lt;font style=&quot;font-size: 23px;&quot;&gt;X11(LibX/LibXCB)&lt;/font&gt;" style="shape=ext;double=1;rounded=1;whiteSpace=wrap;html=1;" parent="1" vertex="1">
          <mxGeometry x="250" y="532" width="340" height="105.5" as="geometry" />
        </mxCell>
        <mxCell id="aqug33uVTvEiZ9dQA_RS-9" value="" style="group" parent="1" vertex="1" connectable="0">
          <mxGeometry x="1060" y="527" width="240" height="115" as="geometry" />
        </mxCell>
        <mxCell id="aqug33uVTvEiZ9dQA_RS-10" value="&lt;font style=&quot;font-size: 24px;&quot;&gt;send requeset&lt;/font&gt;" style="shape=ext;double=1;rounded=1;whiteSpace=wrap;html=1;" parent="aqug33uVTvEiZ9dQA_RS-9" vertex="1">
          <mxGeometry x="-20" width="240" height="115.00000000000001" as="geometry" />
        </mxCell>
        <mxCell id="aqug33uVTvEiZ9dQA_RS-11" value=".OPCODE" style="shape=ext;double=1;rounded=1;whiteSpace=wrap;html=1;fillColor=#dae8fc;strokeColor=#6c8ebf;fontSize=24;" parent="aqug33uVTvEiZ9dQA_RS-9" vertex="1">
          <mxGeometry x="6.857142857142858" y="7.666666666666667" width="102.85714285714286" height="30.666666666666668" as="geometry" />
        </mxCell>
        <mxCell id="aqug33uVTvEiZ9dQA_RS-12" value="&lt;div style=&quot;color: rgb(212, 212, 212); background-color: rgb(30, 30, 30); font-family: Menlo, Monaco, &amp;quot;Courier New&amp;quot;, monospace; font-weight: normal; font-size: 18px; line-height: 27px;&quot;&gt;&lt;div&gt;&lt;span style=&quot;color: #dcdcaa;&quot;&gt;xcb_xv_put_image&lt;/span&gt;&lt;/div&gt;&lt;/div&gt;" style="text;whiteSpace=wrap;html=1;" parent="1" vertex="1">
          <mxGeometry x="730" y="430" width="210" height="50" as="geometry" />
        </mxCell>
        <mxCell id="aqug33uVTvEiZ9dQA_RS-13" value="&lt;font style=&quot;font-size: 25px;&quot;&gt;DRM&lt;/font&gt;" style="shape=ext;double=1;rounded=1;whiteSpace=wrap;html=1;fillColor=#dae8fc;strokeColor=#6c8ebf;" parent="1" vertex="1">
          <mxGeometry x="60" y="1080" width="720" height="160" as="geometry" />
        </mxCell>
        <mxCell id="aqug33uVTvEiZ9dQA_RS-14" value="" style="group" parent="1" vertex="1" connectable="0">
          <mxGeometry x="10" y="977" width="1330" height="110" as="geometry" />
        </mxCell>
        <mxCell id="aqug33uVTvEiZ9dQA_RS-15" value="" style="shape=link;html=1;rounded=0;" parent="aqug33uVTvEiZ9dQA_RS-14" edge="1">
          <mxGeometry width="100" relative="1" as="geometry">
            <mxPoint y="50" as="sourcePoint" />
            <mxPoint x="1330" y="50" as="targetPoint" />
          </mxGeometry>
        </mxCell>
        <mxCell id="aqug33uVTvEiZ9dQA_RS-16" value="&lt;font style=&quot;font-size: 20px;&quot;&gt;Kernel&lt;/font&gt;" style="text;html=1;align=center;verticalAlign=middle;resizable=0;points=[];autosize=1;strokeColor=none;fillColor=none;" parent="aqug33uVTvEiZ9dQA_RS-14" vertex="1">
          <mxGeometry x="1183" y="70" width="80" height="40" as="geometry" />
        </mxCell>
        <mxCell id="aqug33uVTvEiZ9dQA_RS-17" value="&lt;span style=&quot;font-size: 20px;&quot;&gt;User&lt;/span&gt;" style="text;html=1;align=center;verticalAlign=middle;resizable=0;points=[];autosize=1;strokeColor=none;fillColor=none;" parent="aqug33uVTvEiZ9dQA_RS-14" vertex="1">
          <mxGeometry x="1190" width="70" height="40" as="geometry" />
        </mxCell>
        <mxCell id="aqug33uVTvEiZ9dQA_RS-18" value="&lt;font style=&quot;font-size: 20px;&quot; face=&quot;Verdana&quot;&gt;ioctl&lt;/font&gt;" style="text;html=1;align=center;verticalAlign=middle;resizable=0;points=[];autosize=1;strokeColor=none;fillColor=none;" parent="aqug33uVTvEiZ9dQA_RS-14" vertex="1">
          <mxGeometry x="430" y="-17" width="60" height="40" as="geometry" />
        </mxCell>
        <mxCell id="aqug33uVTvEiZ9dQA_RS-19" style="edgeStyle=orthogonalEdgeStyle;rounded=0;orthogonalLoop=1;jettySize=auto;html=1;" parent="1" source="aqug33uVTvEiZ9dQA_RS-20" target="aqug33uVTvEiZ9dQA_RS-13" edge="1">
          <mxGeometry relative="1" as="geometry" />
        </mxCell>
        <mxCell id="aqug33uVTvEiZ9dQA_RS-20" value="&lt;font style=&quot;font-size: 23px;&quot;&gt;Libdrm&lt;/font&gt;" style="shape=ext;double=1;rounded=1;whiteSpace=wrap;html=1;" parent="1" vertex="1">
          <mxGeometry x="250" y="870" width="340" height="70" as="geometry" />
        </mxCell>
        <mxCell id="aqug33uVTvEiZ9dQA_RS-21" style="edgeStyle=orthogonalEdgeStyle;rounded=0;orthogonalLoop=1;jettySize=auto;html=1;entryX=0;entryY=0.5;entryDx=0;entryDy=0;" parent="1" source="aqug33uVTvEiZ9dQA_RS-22" target="aqug33uVTvEiZ9dQA_RS-10" edge="1">
          <mxGeometry relative="1" as="geometry" />
        </mxCell>
        <mxCell id="aqug33uVTvEiZ9dQA_RS-22" value="&lt;font style=&quot;font-size: 23px;&quot;&gt;Xcb_send_ Request&lt;br&gt;&lt;/font&gt;" style="shape=ext;double=1;rounded=1;whiteSpace=wrap;html=1;" parent="1" vertex="1">
          <mxGeometry x="720" y="544.75" width="220" height="80" as="geometry" />
        </mxCell>
        <mxCell id="aqug33uVTvEiZ9dQA_RS-23" style="edgeStyle=orthogonalEdgeStyle;rounded=0;orthogonalLoop=1;jettySize=auto;html=1;entryX=0;entryY=0.5;entryDx=0;entryDy=0;" parent="1" source="aqug33uVTvEiZ9dQA_RS-25" target="aqug33uVTvEiZ9dQA_RS-27" edge="1">
          <mxGeometry relative="1" as="geometry" />
        </mxCell>
        <mxCell id="aqug33uVTvEiZ9dQA_RS-24" style="edgeStyle=orthogonalEdgeStyle;rounded=0;orthogonalLoop=1;jettySize=auto;html=1;entryX=0;entryY=0.5;entryDx=0;entryDy=0;" parent="1" source="aqug33uVTvEiZ9dQA_RS-25" target="aqug33uVTvEiZ9dQA_RS-29" edge="1">
          <mxGeometry relative="1" as="geometry" />
        </mxCell>
        <mxCell id="aqug33uVTvEiZ9dQA_RS-25" value="&lt;font style=&quot;font-size: 23px;&quot;&gt;XvAdapterPTR&lt;br&gt;&lt;/font&gt;" style="shape=ext;double=1;rounded=1;whiteSpace=wrap;html=1;" parent="1" vertex="1">
          <mxGeometry x="780" y="750" width="220" height="80" as="geometry" />
        </mxCell>
        <mxCell id="aqug33uVTvEiZ9dQA_RS-26" value="&lt;div style=&quot;color: rgb(212, 212, 212); background-color: rgb(30, 30, 30); font-family: Menlo, Monaco, &amp;quot;Courier New&amp;quot;, monospace; font-weight: normal; font-size: 18px; line-height: 27px;&quot;&gt;&lt;div&gt;&lt;span style=&quot;color: #d4d4d4;&quot;&gt;.opcode = &lt;/span&gt;&lt;span style=&quot;color: #569cd6;&quot;&gt;XCB_XV_PUT_IMAGE&lt;/span&gt;&lt;/div&gt;&lt;/div&gt;" style="text;whiteSpace=wrap;html=1;" parent="1" vertex="1">
          <mxGeometry x="730" y="470" width="330" height="50" as="geometry" />
        </mxCell>
        <mxCell id="aqug33uVTvEiZ9dQA_RS-27" value="&lt;font style=&quot;font-size: 23px;&quot;&gt;Glamor&lt;br&gt;&lt;/font&gt;" style="shape=ext;double=1;rounded=1;whiteSpace=wrap;html=1;fillColor=#f8cecc;strokeColor=#b85450;" parent="1" vertex="1">
          <mxGeometry x="1080" y="750" width="220" height="80" as="geometry" />
        </mxCell>
        <mxCell id="aqug33uVTvEiZ9dQA_RS-28" style="edgeStyle=orthogonalEdgeStyle;rounded=0;orthogonalLoop=1;jettySize=auto;html=1;entryX=1;entryY=0.5;entryDx=0;entryDy=0;" parent="1" source="aqug33uVTvEiZ9dQA_RS-29" target="aqug33uVTvEiZ9dQA_RS-20" edge="1">
          <mxGeometry relative="1" as="geometry">
            <Array as="points">
              <mxPoint x="950" y="905" />
              <mxPoint x="950" y="905" />
            </Array>
          </mxGeometry>
        </mxCell>
        <mxCell id="aqug33uVTvEiZ9dQA_RS-29" value="&lt;font style=&quot;font-size: 23px;&quot;&gt;DPU overlay&lt;br&gt;&lt;/font&gt;" style="shape=ext;double=1;rounded=1;whiteSpace=wrap;html=1;fillColor=#f8cecc;strokeColor=#b85450;" parent="1" vertex="1">
          <mxGeometry x="1080" y="840" width="220" height="80" as="geometry" />
        </mxCell>
        <mxCell id="aqug33uVTvEiZ9dQA_RS-30" style="edgeStyle=orthogonalEdgeStyle;rounded=0;orthogonalLoop=1;jettySize=auto;html=1;entryX=1;entryY=0.25;entryDx=0;entryDy=0;" parent="1" source="aqug33uVTvEiZ9dQA_RS-10" target="aqug33uVTvEiZ9dQA_RS-5" edge="1">
          <mxGeometry relative="1" as="geometry">
            <Array as="points">
              <mxPoint x="1160" y="733" />
            </Array>
          </mxGeometry>
        </mxCell>
      </root>
    </mxGraphModel>
  </diagram>
</mxfile>
